<svg width="40" height="40" viewBox="0 0 594 586" fill="none" xmlns="http://www.w3.org/2000/svg">
    <path d="M260.520508,182.466797 L546.507813,133.025832 C559.883464,132.622837 571.003906,136.935012 579.869141,145.962356 C588.735026,154.989699 593.167969,166.494257 593.167969,180.476028 L552.357422,443.792434 C548.731771,463.875116 541.190755,480.040806 529.734375,492.289504 C518.277995,504.538202 503.313802,513.360468 484.841797,518.756301 L108,585.048294 C119.824219,583.218215 133.783529,575.410272 149.87793,561.624465 C165.972331,547.838658 177.012695,521.137339 182.999023,481.520508 L221.908203,224.818359 C224.988281,212.192158 231.069336,202.113204 240.151367,194.581496 C249.233398,187.049789 256.023112,183.011556 260.520508,182.466797 Z" fill="#000000" opacity="0.8"/>
    <path d="M141.35227,43.3115234 L386.427465,0 C400.203507,1.01627604 411.215551,5.21972656 419.463598,12.6103516 C427.711645,20.0009766 432.376359,31.5104167 433.457739,47.1386719 L367.560278,476.667969 C363.594793,494.776211 356.503647,510.050951 346.28684,522.492188 C336.070033,534.933424 323.379278,543.747552 308.214575,548.93457 L111.373754,584.414063 C78.0690669,589.217448 51.0218664,582.426107 30.2321529,564.040039 C9.44243934,545.653971 -0.624943472,519.872396 0.0300044448,486.695313 L55.4235591,128.538086 C59.175122,108.474306 69.2001871,90.3597229 85.4987544,74.1943359 C101.797322,58.0289489 120.41516,47.7346781 141.35227,43.3115234 Z" fill="#000000" opacity="0.5"/>
</svg>